<svg width="16" height="16" viewBox="0 0 16 16" fill="none" xmlns="http://www.w3.org/2000/svg">
<path d="M8.00007 0C3.5887 0 0 3.58861 0 8C0 12.4113 3.5887 16 8.00007 16C12.4113 16 16 12.4113 16 8C16 3.58861 12.4113 0 8.00007 0ZM8.00007 15.3478C3.94848 15.3478 0.652251 12.0513 0.652251 8C0.652251 3.94852 3.94848 0.652234 8.00007 0.652234C12.0515 0.652234 15.3477 3.94852 15.3477 8C15.3477 12.0513 12.0515 15.3478 8.00007 15.3478Z" fill="#54D469"/>
<path fill-rule="evenodd" clip-rule="evenodd" d="M8.27518 7.72475L8.27518 4.69696C8.27518 4.54494 8.15195 4.4217 7.99993 4.4217C7.84791 4.4217 7.72467 4.54494 7.72467 4.69696L7.72467 7.72475L4.69688 7.72475C4.54487 7.72475 4.42163 7.84798 4.42163 8C4.42163 8.15202 4.54487 8.27525 4.69688 8.27525L7.72467 8.27525L7.72467 11.303C7.72467 11.4551 7.84791 11.5783 7.99993 11.5783C8.15195 11.5783 8.27518 11.4551 8.27518 11.303L8.27518 8.27525L11.303 8.27525C11.455 8.27525 11.5782 8.15202 11.5782 8C11.5782 7.84798 11.455 7.72475 11.303 7.72475L8.27518 7.72475Z" fill="#54D469"/>
<path fill-rule="evenodd" clip-rule="evenodd" d="M4.20413 8C4.20413 7.72782 4.42478 7.50717 4.69696 7.50717L7.50718 7.50718L7.50718 4.69696C7.50718 4.42478 7.72782 4.20413 8 4.20413C8.27218 4.20413 8.49283 4.42478 8.49283 4.69696V7.50717L11.303 7.50717C11.5752 7.50717 11.7959 7.72782 11.7959 8C11.7959 8.27218 11.5752 8.49283 11.303 8.49283L8.49283 8.49283V11.303C8.49283 11.5752 8.27218 11.7959 8 11.7959C7.72782 11.7959 7.50718 11.5752 7.50718 11.303L7.50718 8.49282L4.69696 8.49283C4.42478 8.49283 4.20413 8.27218 4.20413 8ZM8.27526 7.72475L8.05769 7.72475L8.05768 4.69696C8.05768 4.6651 8.03186 4.63927 8 4.63927C7.96815 4.63927 7.94232 4.6651 7.94232 4.69696L7.94232 7.94232L4.69696 7.94232C4.6651 7.94232 4.63928 7.96814 4.63928 8C4.63928 8.03186 4.6651 8.05768 4.69696 8.05768L7.94232 8.05768L7.94232 11.303C7.94232 11.3349 7.96815 11.3607 8 11.3607C8.03186 11.3607 8.05768 11.3349 8.05768 11.303L8.05769 8.05768H11.303C11.3349 8.05768 11.3607 8.03186 11.3607 8C11.3607 7.96814 11.3349 7.94232 11.303 7.94232H8.27526L8.27526 7.72475Z" fill="#55D469"/>
</svg>
