<svg width="19" height="21" viewBox="0 0 19 21" fill="none" xmlns="http://www.w3.org/2000/svg">
<path d="M18.2981 3.27347L14.6567 0.204908C14.287 -0.106029 13.7351 -0.0574667 13.4242 0.312327C13.1132 0.682121 13.1618 1.23394 13.5316 1.54488L15.3369 3.07918H6.68862C3.94737 3.08221 1.72573 5.30384 1.72266 8.04514V9.61525C1.72266 10.098 2.11439 10.4898 2.59718 10.4898C3.07998 10.4898 3.47171 10.098 3.47171 9.61525V8.0298C3.47479 6.25413 4.91291 4.81597 6.68862 4.81289H15.342L13.5367 6.34719C13.1669 6.65813 13.1183 7.20999 13.4293 7.57974C13.7402 7.94949 14.2921 7.9981 14.6618 7.68716L18.3032 4.61856C18.673 4.30812 18.7216 3.7563 18.4111 3.38655C18.3784 3.34766 18.3421 3.31136 18.3032 3.27863L18.2981 3.27347Z" fill="#678DF9"/>
<path d="M15.9929 10.4941C15.5101 10.4941 15.1184 10.8859 15.1184 11.3687V12.9541C15.1153 14.7298 13.6772 16.168 11.9015 16.171H3.24807L5.0534 14.6367C5.47635 14.403 5.62978 13.8711 5.39604 13.4481C5.16233 13.0252 4.63045 12.8718 4.20746 13.1055C4.11029 13.1592 4.02387 13.2308 3.95378 13.3172L0.312399 16.3858C-0.057354 16.6963 -0.105957 17.2481 0.204488 17.6178C0.237218 17.6567 0.273516 17.693 0.312399 17.7258L3.95378 20.7943C4.32353 21.1053 4.87539 21.0567 5.18633 20.6869C5.49726 20.3171 5.4487 19.7653 5.07891 19.4543L3.27358 17.92H11.9014C14.6426 17.917 16.8643 15.6953 16.8674 12.9541V11.3687C16.8675 10.8854 16.4757 10.4941 15.9929 10.4941Z" fill="#5AB0FF"/>
</svg>
