<svg width="31" height="31" viewBox="0 0 31 31" fill="none" xmlns="http://www.w3.org/2000/svg">
<circle cx="15.5" cy="15.5" r="10.5" fill="#77EC8A"/>
<circle cx="15.5" cy="15.5" r="13" stroke="#54D469" stroke-opacity="0.13" stroke-width="5"/>
<path d="M20.7304 10.9203L20.0797 10.2696C19.7202 9.91013 19.1376 9.91013 18.7782 10.2696L18.2575 10.7902L20.2098 12.7426L20.7304 12.2217C21.0899 11.8626 21.0899 11.2798 20.7304 10.9203Z" fill="white"/>
<path d="M12.28 20.667V20.672L10.0845 20.9992C10.0442 21.0053 10.0068 20.9772 10.0008 20.9373C9.99973 20.9301 9.99973 20.9226 10.0008 20.9154L10.3278 18.72V18.7146L17.8748 11.1676L18.5256 11.8183L11.2875 19.0564C11.4033 19.2394 11.4959 19.3656 11.5651 19.435C11.6354 19.5051 11.759 19.5942 11.936 19.7017L11.9381 19.7075L19.1764 12.469L19.8272 13.1201L12.28 20.667Z" fill="white"/>
</svg>
