<svg width="14" height="14" viewBox="0 0 14 14" fill="none" xmlns="http://www.w3.org/2000/svg">
<path d="M13.9608 3.85437C13.9301 3.15779 13.8175 2.67889 13.6561 2.26392C13.4897 1.82344 13.2335 1.42908 12.898 1.10125C12.5702 0.768313 12.1732 0.509608 11.7378 0.345741C11.3205 0.184375 10.8441 0.0717292 10.1475 0.0410167C9.4457 0.00770313 9.22291 0 7.44299 0C5.66306 0 5.44027 0.00770313 4.74109 0.0384156C4.0445 0.0691282 3.56561 0.181874 3.15074 0.34314C2.71016 0.509608 2.3158 0.765712 1.98797 1.10125C1.65503 1.42908 1.39643 1.82604 1.23246 2.26142C1.07109 2.67889 0.958448 3.15518 0.927735 3.85177C0.894422 4.55355 0.886719 4.77635 0.886719 6.55627C0.886719 8.33619 0.894422 8.55899 0.925134 9.25817C0.955847 9.95475 1.06859 10.4336 1.22996 10.8486C1.39643 11.2891 1.65503 11.6835 1.98797 12.0113C2.3158 12.3442 2.71276 12.6029 3.14814 12.7668C3.56561 12.9282 4.0419 13.0408 4.73859 13.0715C5.43767 13.1023 5.66056 13.1099 7.44049 13.1099C9.22041 13.1099 9.4432 13.1023 10.1424 13.0715C10.839 13.0408 11.3179 12.9282 11.7327 12.7668C12.6138 12.4262 13.3104 11.7296 13.651 10.8486C13.8123 10.4311 13.925 9.95475 13.9557 9.25817C13.9865 8.55899 13.9942 8.33619 13.9942 6.55627C13.9942 4.77635 13.9916 4.55355 13.9608 3.85437ZM12.7803 9.20695C12.7521 9.84721 12.6445 10.193 12.5549 10.4234C12.3346 10.9946 11.8813 11.4479 11.3102 11.6682C11.0797 11.7578 10.7314 11.8653 10.0937 11.8934C9.40219 11.9243 9.1948 11.9319 7.44559 11.9319C5.69638 11.9319 5.48639 11.9243 4.79741 11.8934C4.15715 11.8653 3.81141 11.7578 3.58092 11.6682C3.2967 11.5631 3.03799 11.3966 2.82801 11.179C2.61032 10.9664 2.44385 10.7103 2.33881 10.426C2.24917 10.1956 2.14163 9.84721 2.11352 9.20955C2.08271 8.51807 2.0751 8.31059 2.0751 6.56137C2.0751 4.81216 2.08271 4.60217 2.11352 3.91329C2.14163 3.27303 2.24917 2.92729 2.33881 2.6968C2.44385 2.41248 2.61032 2.15388 2.83061 1.94379C3.0431 1.7261 3.2992 1.55964 3.58352 1.45469C3.81401 1.36506 4.16235 1.25751 4.80001 1.2293C5.49149 1.19859 5.69898 1.19088 7.44809 1.19088C9.1999 1.19088 9.40729 1.19859 10.0963 1.2293C10.7365 1.25751 11.0823 1.36506 11.3128 1.45469C11.597 1.55964 11.8557 1.7261 12.0657 1.94379C12.2834 2.15638 12.4498 2.41248 12.5549 2.6968C12.6445 2.92729 12.7521 3.27553 12.7803 3.91329C12.811 4.60478 12.8187 4.81216 12.8187 6.56137C12.8187 8.31059 12.811 8.51547 12.7803 9.20695Z" fill="white"/>
<path d="M7.44297 3.18848C5.58371 3.18848 4.0752 4.69689 4.0752 6.55625C4.0752 8.41561 5.58371 9.92402 7.44297 9.92402C9.30232 9.92402 10.8107 8.41561 10.8107 6.55625C10.8107 4.69689 9.30232 3.18848 7.44297 3.18848ZM7.44297 8.74084C6.23678 8.74084 5.25838 7.76254 5.25838 6.55625C5.25838 5.34996 6.23678 4.37166 7.44297 4.37166C8.64926 4.37166 9.62756 5.34996 9.62756 6.55625C9.62756 7.76254 8.64926 8.74084 7.44297 8.74084Z" fill="white"/>
<path d="M11.7303 3.05539C11.7303 3.48956 11.3782 3.84161 10.9439 3.84161C10.5098 3.84161 10.1577 3.48956 10.1577 3.05539C10.1577 2.62111 10.5098 2.26917 10.9439 2.26917C11.3782 2.26917 11.7303 2.62111 11.7303 3.05539Z" fill="white"/>
</svg>
