<svg width="143" height="19" viewBox="0 0 143 19" fill="none" xmlns="http://www.w3.org/2000/svg">
<path d="M5.39648 18H0.220703V0.385254H5.39648V18ZM12.9707 18H8.08789V0.385254H12.104L18.9033 9.51611H19.001V0.385254H23.8838V18H19.9165L13.0684 8.72266H12.9707V18ZM37.7812 18H31.0674L25.7207 0.385254H31.6777L34.4976 13.0928H34.5952L37.415 0.385254H43.1279L37.7812 18ZM57.3916 13.8862V18H44.9648V0.385254H57.3916V4.49902H50.1406V7.34326H56.9399V11.0542H50.1406V13.8862H57.3916ZM59.5703 12.812H64.4653C64.5386 13.3003 64.8397 13.6991 65.3687 14.0083C65.8976 14.3175 66.5161 14.4722 67.2241 14.4722C67.9891 14.4722 68.5954 14.3338 69.043 14.0571C69.4987 13.7804 69.7266 13.4264 69.7266 12.9951C69.7266 12.5882 69.5435 12.279 69.1772 12.0674C68.811 11.8477 68.1478 11.6523 67.1875 11.4814L64.856 11.0664C63.2446 10.7897 62.0076 10.2038 61.145 9.30859C60.2905 8.41341 59.8633 7.27409 59.8633 5.89062C59.8633 4.13281 60.5387 2.72493 61.8896 1.66699C63.2406 0.609049 64.9821 0.0800781 67.1143 0.0800781C69.4336 0.0800781 71.2321 0.576497 72.5098 1.56934C73.7874 2.56217 74.4344 3.92122 74.4507 5.64648H69.7266C69.7103 5.10938 69.4661 4.6862 68.9941 4.37695C68.5221 4.05957 67.9281 3.90088 67.2119 3.90088C66.5365 3.90088 65.9993 4.03109 65.6006 4.2915C65.2018 4.55192 65.0024 4.90186 65.0024 5.34131C65.0024 5.75635 65.1896 6.08594 65.564 6.33008C65.9383 6.57422 66.5487 6.76953 67.395 6.91602L69.812 7.33105C71.521 7.63216 72.7824 8.19775 73.5962 9.02783C74.4181 9.84977 74.8291 10.9769 74.8291 12.4092C74.8291 14.2077 74.1292 15.64 72.7295 16.7061C71.3379 17.7721 69.4702 18.3052 67.1265 18.3052C64.7502 18.3052 62.8988 17.8291 61.5723 16.877C60.2458 15.9167 59.5785 14.5617 59.5703 12.812ZM86.1753 18H80.9995V4.49902H76.3608V0.385254H90.814V4.49902H86.1753V18Z" fill="white"/>
<path d="M92.9438 0.385254H100.573C102.469 0.385254 103.999 0.954915 105.163 2.09424C106.335 3.22542 106.921 4.73503 106.921 6.62305C106.921 8.49479 106.311 10.0003 105.09 11.1396C103.869 12.2708 102.274 12.8364 100.305 12.8364H97.4238V18H92.9438V0.385254ZM97.4238 3.81543V9.46729H99.3647C100.325 9.46729 101.07 9.22314 101.599 8.73486C102.128 8.24658 102.392 7.54671 102.392 6.63525C102.392 5.7238 102.128 5.02799 101.599 4.54785C101.078 4.05957 100.341 3.81543 99.3892 3.81543H97.4238ZM113.641 3.7666V8.77148H116.265C117.087 8.77148 117.73 8.54769 118.194 8.1001C118.658 7.65251 118.89 7.04622 118.89 6.28125C118.89 5.52441 118.65 4.91813 118.169 4.4624C117.689 3.99854 117.05 3.7666 116.253 3.7666H113.641ZM113.641 11.8354V18H109.161V0.385254H116.705C118.886 0.385254 120.558 0.89388 121.722 1.91113C122.885 2.92839 123.467 4.35661 123.467 6.1958C123.467 7.30257 123.199 8.30762 122.662 9.21094C122.133 10.1061 121.396 10.7612 120.452 11.1763L123.98 18H118.951L115.923 11.8354H113.641ZM127.819 2.53369C129.389 0.897949 131.509 0.0800781 134.179 0.0800781C136.848 0.0800781 138.964 0.897949 140.526 2.53369C142.089 4.16943 142.87 6.39111 142.87 9.19873C142.87 12.0063 142.089 14.228 140.526 15.8638C138.964 17.4914 136.848 18.3052 134.179 18.3052C131.501 18.3052 129.381 17.4914 127.819 15.8638C126.256 14.228 125.475 12.0063 125.475 9.19873C125.475 6.39111 126.256 4.16943 127.819 2.53369ZM137.182 5.20703C136.433 4.21419 135.432 3.71777 134.179 3.71777C132.925 3.71777 131.92 4.21419 131.164 5.20703C130.415 6.19173 130.041 7.5223 130.041 9.19873C130.041 10.867 130.415 12.1976 131.164 13.1904C131.912 14.1751 132.917 14.6675 134.179 14.6675C135.432 14.6675 136.433 14.1751 137.182 13.1904C137.938 12.1976 138.317 10.867 138.317 9.19873C138.317 7.5223 137.938 6.19173 137.182 5.20703Z" fill="white" fill-opacity="0.58"/>
</svg>
