<svg width="60" height="60" viewBox="0 0 60 60" fill="none" xmlns="http://www.w3.org/2000/svg">
<circle cx="30" cy="30" r="30" fill="#3078FF"/>
<g clip-path="url(#clip0)">
<path fill-rule="evenodd" clip-rule="evenodd" d="M30 16C26.1 16 23 19.1 23 23C23 26.9 26.1 30 30 30C33.9 30 37 26.9 37 23C37 19.1 33.9 16 30 16ZM25 23C25 20.2 27.2 18 30 18C32.8 18 35 20.2 35 23C35 25.8 32.8 28 30 28C27.2 28 25 25.8 25 23Z" fill="white"/>
<path fill-rule="evenodd" clip-rule="evenodd" d="M21.6 32C20.3 32 19 32.7 18.3 34C17.8 35 17.2 36.6 17 38.2C16.9 39.4 17.4 40.6 18.5 41.3C20.3 42.4 23.9 44 30 44C36.1 44 39.7001 42.4 41.5 41.3C42.6 40.6 43.1 39.4 43 38.2C42.9 36.6 42.2001 35 41.7001 33.9C41.1 32.6 39.7 31.9 38.4 31.9H21.6V32ZM20.1 34.8C20.4 34.3 20.9 34 21.6 34H38.4C39.1 34 39.6 34.3 39.9 34.8C40.4 35.8 40.9 37.1 41 38.3C41 38.9 40.8 39.3 40.4 39.6C39 40.5 35.8 42 30 42C24.2 42 21 40.5 19.6 39.6C19.2 39.4 19 38.9 19 38.4C19.1 37.1 19.6 35.8 20.1 34.8Z" fill="white"/>
</g>
<defs>
<clipPath id="clip0">
<rect width="26" height="28" fill="white" transform="translate(17 16)"/>
</clipPath>
</defs>
</svg>
