<svg width="194" height="42" viewBox="0 0 194 42" fill="none" xmlns="http://www.w3.org/2000/svg">
<path fill-rule="evenodd" clip-rule="evenodd" d="M10.4179 2.50638C10.2422 3.79621 10.2516 4.86772 11.0042 5.52466C13.8256 7.98738 22.229 5.95252 25.6254 0C30.3818 0.159558 33.9784 1.63358 34.6687 6.4014C22.736 3.66128 13.725 6.71427 7.03088 14.3608C0.140043 12.5355 1.44627 7.73005 10.4179 2.50638Z" fill="#FCD300"/>
<path fill-rule="evenodd" clip-rule="evenodd" d="M7.03046 14.3608C1.74365 27.5819 11.0038 32.9552 21.4845 33.5566C10.7264 35.98 3.4985 34.4075 0.959439 27.5278C-1.42827 20.3191 0.657224 15.9697 7.03042 14.3608H7.03046Z" fill="#CF221E"/>
<path fill-rule="evenodd" clip-rule="evenodd" d="M0.0178223 21.7069C0.790044 23.5782 3.09811 24.6364 6.17382 25.2882C5.11477 22.4803 5.22264 18.8788 7.02929 14.3608C2.60752 15.477 0.249684 17.9125 0.0178223 21.7069Z" fill="#2B2A29"/>
<path fill-rule="evenodd" clip-rule="evenodd" d="M9.57886 36.6221C13.1588 36.6366 16.798 36.5565 19.8922 35.8431C27.138 37.9497 33.8038 36.4911 40.4851 29.6788C37.498 40.7901 19.2434 46.9135 9.57886 36.6221Z" fill="url(#paint0_linear)"/>
<path fill-rule="evenodd" clip-rule="evenodd" d="M13.5933 26.1054C13.1145 25.7464 12.7395 25.9688 12.2385 25.4449C10.8988 24.044 12.7412 22.673 12.8821 22.5321C13.6271 21.7871 14.9395 21.8527 13.9659 20.4999C13.1278 19.3356 12.3778 21.69 10.5789 20.4322C10.2216 20.1824 10.8967 19.415 9.05478 17.9936C8.17143 17.3119 9.11018 14.3695 9.83379 14.3695C11.6533 14.3695 12.4406 12.4172 14.5417 12.9131C16.6788 13.4174 15.0547 14.3695 18.0641 14.3695C18.5001 14.3695 20.1396 13.6552 20.6721 14.9452C21.0832 15.9412 23.8677 14.2977 22.1624 13.8953C20.5072 13.5047 22.9856 11.628 22.9413 11.3551C22.8476 10.7768 22.6166 9.89865 25.0074 9.89865C25.9347 9.89865 26.7274 9.11967 27.8186 9.11967C29.4621 9.11967 30.8135 7.65826 31.7814 9.3229C32.4886 10.5394 33.5141 10.1517 34.1861 11.0841C34.9007 12.0756 37.2704 10.1005 37.6747 11.5921C37.8244 12.1445 38.9813 13.5611 39.3343 14.2001C40.8169 16.8839 39.9039 14.7881 41.6375 15.8597C42.7387 16.5404 43.0219 15.1303 45.5664 17.7904C47.2437 19.5439 47.5406 18.8297 45.3631 21.008C44.8691 21.5022 45.7747 22.4644 44.1438 22.4644C41.3329 22.4644 43.2393 24.7049 40.8585 23.5143C40.0086 23.0893 34.4303 22.8004 33.6103 23.3789C30.7368 25.4062 20.7835 24.5226 17.3867 23.5821C15.2708 22.9963 13.6287 26.1319 13.5933 26.1054H13.5933Z" fill="#2C8FC6"/>
<path fill-rule="evenodd" clip-rule="evenodd" d="M25.6252 0C29.5823 0.562571 31.7434 2.92127 31.4971 5.79845C32.5306 5.95249 33.5876 6.15318 34.6685 6.4014C33.9782 1.63361 30.3816 0.159594 25.6252 0Z" fill="#2B2A29" fill-opacity="0.121569"/>
<path fill-rule="evenodd" clip-rule="evenodd" d="M8.59215 12.7028C0.958163 12.4379 2.55631 7.15354 10.1998 2.63416C1.4255 7.80824 0.19627 12.5503 7.03088 14.3608C7.53794 13.7816 8.05825 13.2287 8.59219 12.7028H8.59215Z" fill="#2B2A29" fill-opacity="0.078431"/>
<path fill-rule="evenodd" clip-rule="evenodd" d="M37.507 18.7877H40.6663V21.2317H41.3569C42.2247 21.2317 43.118 21.4253 43.7397 22.0749C44.2615 22.6202 44.5289 23.2961 44.5289 24.0505C44.5289 24.6385 44.3756 25.1977 44.0293 25.6768C43.7314 26.089 43.3503 26.4227 42.8712 26.6063C42.4034 26.7855 41.8513 26.8265 41.354 26.8265H34.9718V25.0824C34.9698 25.0946 34.9679 25.1067 34.9658 25.1188C34.8826 25.6125 34.661 26.0561 34.2776 26.3832C33.8504 26.7475 33.2947 26.8607 32.7472 26.8607C32.5092 26.8607 32.2632 26.8438 32.023 26.8265H29.0682V25.2368L28.0853 26.8265H25.3595V25.8166C25.2252 25.9708 25.0751 26.1134 24.9075 26.2416C24.266 26.7323 23.498 26.929 22.6991 26.929C21.6717 26.929 20.7573 26.5773 20.0401 25.8413V26.8265H13.4712V18.7877H19.9205V19.9114C19.945 19.8834 19.97 19.8557 19.9956 19.8282C20.7332 19.0366 21.6978 18.6766 22.7732 18.6766C23.7081 18.6766 24.572 18.9569 25.2569 19.6039C25.2922 19.6372 25.3263 19.6713 25.3595 19.7062V18.7877H28.4333V20.396L29.4117 18.7877H37.507V18.7877Z" fill="white"/>
<path d="M14.4316 25.8664V19.7478H18.9608V20.7818H15.6707V22.1406H18.7301V23.1746H15.6707V24.8324H19.0804V25.8664H14.4316Z" fill="#30477B"/>
<path d="M24.0458 23.6103L25.2421 23.9778C25.0584 24.6514 24.7522 25.1514 24.3249 25.479C23.8976 25.8051 23.3564 25.9689 22.6998 25.9689C21.8866 25.9689 21.2186 25.6912 20.6945 25.1357C20.1718 24.5803 19.9097 23.8211 19.9097 22.8569C19.9097 21.8385 20.1731 21.0466 20.6987 20.4827C21.2242 19.9186 21.9164 19.6367 22.7738 19.6367C23.523 19.6367 24.1311 19.8588 24.5983 20.3018C24.8775 20.5638 25.0854 20.9399 25.225 21.4312L24.003 21.7217C23.9303 21.4055 23.7793 21.1549 23.55 20.9712C23.3193 20.7874 23.0402 20.6963 22.7126 20.6963C22.2583 20.6963 21.8894 20.8586 21.6074 21.1848C21.324 21.5095 21.183 22.0365 21.183 22.7657C21.183 23.5377 21.3225 24.0889 21.6002 24.4164C21.8794 24.7454 22.2411 24.9092 22.687 24.9092C23.0159 24.9092 23.2994 24.8053 23.5358 24.5959C23.7723 24.3865 23.9432 24.059 24.0457 23.6103L24.0458 23.6103Z" fill="#30477B"/>
<path d="M26.3193 19.7478H27.473V23.8212L29.9512 19.7478H31.1817V25.8664H30.0281V21.8585L27.5499 25.8664H26.3193V19.7478Z" fill="#30477B"/>
<path d="M32.8844 19.7478H37.17V25.8664H35.931V20.7818H34.0937V23.3939C34.0937 24.1416 34.068 24.6644 34.0182 24.9592C33.9683 25.2554 33.8473 25.4876 33.6536 25.6528C33.4599 25.818 33.1579 25.9006 32.7463 25.9006C32.601 25.9006 32.3389 25.8864 31.9573 25.8593V24.9008L32.2336 24.9051C32.4914 24.9051 32.6665 24.8709 32.7549 24.8011C32.8446 24.7313 32.8888 24.5604 32.8888 24.2884L32.8845 23.2372V19.7478H32.8844Z" fill="#30477B"/>
<path d="M38.4666 19.7478H39.7057V22.1918H41.3564C42.134 22.1918 42.6966 22.3741 43.0456 22.7387C43.3945 23.1034 43.5683 23.5406 43.5683 24.0505C43.5683 24.4678 43.4629 24.8225 43.2507 25.1144C43.0399 25.4078 42.7992 25.6058 42.5271 25.7098C42.2565 25.8137 41.8648 25.8665 41.3535 25.8665H38.4666V19.7478L38.4666 19.7478ZM39.7057 24.8324H40.9063C41.2952 24.8324 41.5658 24.8139 41.7153 24.7769C41.8649 24.7398 42.0002 24.6544 42.1184 24.5219C42.2366 24.3894 42.295 24.2271 42.295 24.0334C42.295 23.7542 42.1939 23.5505 41.9931 23.421C41.7908 23.2913 41.4476 23.2258 40.9605 23.2258H39.7057V24.8324H39.7057Z" fill="#30477B"/>
<path d="M83.6484 29H80.0645V14.9082H83.6484V29ZM89.3855 29H85.9871V14.9082H88.8484L94.825 23.1016H94.9031V14.9082H98.3016V29H95.4695L89.4637 20.7285H89.3855V29ZM108.863 29H104.351L99.859 14.9082H103.931L106.646 25.4941H106.724L109.429 14.9082H113.355L108.863 29ZM124.561 26.1094V29H114.903V14.9082H124.561V17.7988H118.487V20.6016H124.2V23.2383H118.487V26.1094H124.561ZM126.333 24.918H129.741C129.807 25.3932 130.077 25.7806 130.552 26.0801C131.034 26.3796 131.61 26.5293 132.28 26.5293C132.971 26.5293 133.527 26.3926 133.95 26.1191C134.374 25.8392 134.585 25.4844 134.585 25.0547C134.585 24.6641 134.419 24.3613 134.087 24.1465C133.762 23.9251 133.195 23.7298 132.388 23.5605L130.542 23.1992C129.247 22.9518 128.267 22.4863 127.603 21.8027C126.939 21.1126 126.607 20.2305 126.607 19.1562C126.607 17.8021 127.127 16.7148 128.169 15.8945C129.217 15.0742 130.565 14.6641 132.212 14.6641C133.957 14.6641 135.327 15.0579 136.323 15.8457C137.326 16.627 137.837 17.6849 137.857 19.0195H134.556C134.523 18.5117 134.295 18.1113 133.872 17.8184C133.449 17.5254 132.909 17.3789 132.251 17.3789C131.626 17.3789 131.122 17.5091 130.737 17.7695C130.36 18.0299 130.171 18.375 130.171 18.8047C130.171 19.1823 130.334 19.4883 130.659 19.7227C130.991 19.9505 131.529 20.1393 132.271 20.2891L134.097 20.6309C135.484 20.8978 136.502 21.3568 137.154 22.0078C137.805 22.6589 138.13 23.541 138.13 24.6543C138.13 26.054 137.593 27.1706 136.519 28.0039C135.445 28.8307 133.999 29.2441 132.183 29.2441C130.379 29.2441 128.957 28.8633 127.915 28.1016C126.88 27.3398 126.353 26.2786 126.333 24.918ZM146.855 29H143.281V17.7988H139.395V14.9082H150.742V17.7988H146.855V29Z" fill="#737373"/>
<path d="M152.456 14.9082H158.559C160.076 14.9082 161.3 15.3639 162.231 16.2754C163.169 17.1803 163.637 18.388 163.637 19.8984C163.637 21.3958 163.149 22.6003 162.173 23.5117C161.196 24.4167 159.92 24.8691 158.345 24.8691H156.04V29H152.456V14.9082ZM156.04 17.6523V22.1738H157.593C158.361 22.1738 158.957 21.9785 159.38 21.5879C159.803 21.1973 160.014 20.6374 160.014 19.9082C160.014 19.179 159.803 18.6224 159.38 18.2383C158.963 17.8477 158.374 17.6523 157.612 17.6523H156.04ZM169.013 17.6133V21.6172H171.113C171.77 21.6172 172.285 21.4382 172.656 21.0801C173.027 20.722 173.213 20.237 173.213 19.625C173.213 19.0195 173.02 18.5345 172.636 18.1699C172.252 17.7988 171.741 17.6133 171.103 17.6133H169.013ZM169.013 24.0684V29H165.429V14.9082H171.464C173.209 14.9082 174.547 15.3151 175.478 16.1289C176.409 16.9427 176.875 18.0853 176.875 19.5566C176.875 20.4421 176.66 21.2461 176.23 21.9688C175.807 22.6849 175.218 23.209 174.463 23.541L177.285 29H173.261L170.839 24.0684H169.013ZM180.356 16.627C181.612 15.3184 183.308 14.6641 185.444 14.6641C187.579 14.6641 189.272 15.3184 190.522 16.627C191.772 17.9355 192.397 19.7129 192.397 21.959C192.397 24.2051 191.772 25.9824 190.522 27.291C189.272 28.5931 187.579 29.2441 185.444 29.2441C183.302 29.2441 181.606 28.5931 180.356 27.291C179.106 25.9824 178.481 24.2051 178.481 21.959C178.481 19.7129 179.106 17.9355 180.356 16.627ZM187.846 18.7656C187.247 17.9714 186.446 17.5742 185.444 17.5742C184.441 17.5742 183.637 17.9714 183.032 18.7656C182.433 19.5534 182.133 20.6178 182.133 21.959C182.133 23.2936 182.433 24.3581 183.032 25.1523C183.631 25.9401 184.435 26.334 185.444 26.334C186.446 26.334 187.247 25.9401 187.846 25.1523C188.452 24.3581 188.754 23.2936 188.754 21.959C188.754 20.6178 188.452 19.5534 187.846 18.7656Z" fill="#54D569"/>
<defs>
<linearGradient id="paint0_linear" x1="9.57886" y1="35.7834" x2="31.8865" y2="39.5007" gradientUnits="userSpaceOnUse">
<stop stop-color="#3B5647"/>
<stop offset="0.258824" stop-color="#298635"/>
<stop offset="0.701961" stop-color="#288534"/>
<stop offset="1" stop-color="#325E3D"/>
</linearGradient>
</defs>
</svg>
