<svg width="60" height="60" viewBox="0 0 60 60" fill="none" xmlns="http://www.w3.org/2000/svg">
<path fill-rule="evenodd" clip-rule="evenodd" d="M0 30C0 13.4705 13.3999 0 29.9294 0C46.459 0 59.8588 13.4705 59.8588 30C59.8588 46.5295 46.459 60 29.9294 60C13.3999 60 0 46.5295 0 30Z" fill="#3078FF"/>
<path d="M36.729 25.5185L35.4129 24.2592C35.2325 24.0864 35.013 24 34.755 24C34.4968 24 34.2773 24.0864 34.0969 24.2592L27.7484 30.3426L24.9032 27.6111C24.7225 27.4382 24.5032 27.3519 24.2452 27.3519C23.9871 27.3519 23.7677 27.4382 23.5871 27.6111L22.271 28.8703C22.0903 29.0432 22 29.2531 22 29.5001C22 29.7468 22.0903 29.957 22.271 30.1298L25.7741 33.4815L27.0903 34.7407C27.2709 34.9137 27.4903 35 27.7484 35C28.0064 35 28.2258 34.9134 28.4064 34.7407L29.7226 33.4815L36.729 26.7778C36.9095 26.605 37 26.3951 37 26.1481C37.0001 25.9013 36.9095 25.6913 36.729 25.5185Z" fill="white"/>
</svg>
