<svg width="60" height="60" viewBox="0 0 60 60" fill="none" xmlns="http://www.w3.org/2000/svg">
<path fill-rule="evenodd" clip-rule="evenodd" d="M0 30C0 13.4705 13.3999 0 29.9294 0C46.459 0 59.8588 13.4705 59.8588 30C59.8588 46.5295 46.459 60 29.9294 60C13.3999 60 0 46.5295 0 30Z" fill="#3078FF"/>
<path d="M2.5 30C2.5 14.8435 14.7882 2.5 29.9294 2.5C45.0706 2.5 57.3588 14.8435 57.3588 30C57.3588 45.1565 45.0706 57.5 29.9294 57.5C14.7882 57.5 2.5 45.1565 2.5 30Z" stroke="white" stroke-opacity="0.32" stroke-width="5"/>
<rect x="18.5168" y="17.3684" width="20.5263" height="6.31579" rx="3.15789" fill="white" fill-opacity="0.38"/>
<rect x="18.5168" y="26.8421" width="20.5263" height="6.31579" rx="3.15789" fill="white" fill-opacity="0.62"/>
<rect x="18.5168" y="36.3158" width="20.5263" height="6.31579" rx="3.15789" fill="white" fill-opacity="0.38"/>
<path fill-rule="evenodd" clip-rule="evenodd" d="M32.7272 20.5263C32.7272 22.2704 34.141 23.6842 35.8851 23.6842C37.6291 23.6842 39.043 22.2704 39.043 20.5263C39.043 18.7822 37.6291 17.3684 35.8851 17.3684C34.141 17.3684 32.7272 18.7822 32.7272 20.5263Z" fill="white"/>
<path fill-rule="evenodd" clip-rule="evenodd" d="M18.5692 29.9999C18.5692 31.744 19.9831 33.1578 21.7271 33.1578C23.4712 33.1578 24.885 31.744 24.885 29.9999C24.885 28.2559 23.4712 26.842 21.7271 26.842C19.9831 26.842 18.5692 28.2559 18.5692 29.9999Z" fill="white"/>
<path fill-rule="evenodd" clip-rule="evenodd" d="M32.7272 39.4737C32.7272 41.2177 34.141 42.6316 35.8851 42.6316C37.6291 42.6316 39.043 41.2177 39.043 39.4737C39.043 37.7296 37.6291 36.3158 35.8851 36.3158C34.141 36.3158 32.7272 37.7296 32.7272 39.4737Z" fill="white"/>
</svg>
