<svg width="17" height="17" viewBox="0 0 17 17" fill="none" xmlns="http://www.w3.org/2000/svg">
<path d="M17 8.5C17 3.80182 13.1982 0 8.5 0C3.80182 0 0 3.80182 0 8.5C0 10.9727 1.05091 13.1982 2.75091 14.7745L3.02909 15.0218C3.06 15.0218 3.06 15.0527 3.09091 15.0527C3.24545 15.1764 3.4 15.3 3.55455 15.3927C3.61636 15.4236 3.64727 15.4545 3.70909 15.4855C3.86364 15.6091 4.04909 15.7018 4.20364 15.7945C4.23455 15.8255 4.26545 15.8255 4.32727 15.8564C4.51273 15.9491 4.69818 16.0727 4.91455 16.1655C4.91455 16.1655 4.94545 16.1655 4.94545 16.1964C5.59455 16.5055 6.27455 16.7218 7.01636 16.8455C7.04727 16.8455 7.04727 16.8455 7.07818 16.8455C7.29455 16.8764 7.54182 16.9073 7.75818 16.9382C7.78909 16.9382 7.82 16.9382 7.85091 16.9382C8.03636 17 8.25273 17 8.5 17C8.71636 17 8.96364 17 9.18 16.9691C9.21091 16.9691 9.24182 16.9691 9.27273 16.9691C9.48909 16.9382 9.73636 16.9073 9.95273 16.8764C9.98364 16.8764 9.98364 16.8764 10.0145 16.8764C10.7255 16.7527 11.4055 16.5364 12.0545 16.2273C12.0855 16.2273 12.1164 16.1964 12.1164 16.1964C12.3018 16.1036 12.4873 16.0109 12.6727 15.9182C12.7036 15.8873 12.7655 15.8564 12.7964 15.8255C12.9509 15.7327 13.1364 15.64 13.2909 15.5164C13.3527 15.4855 13.4145 15.4236 13.4455 15.3927C13.5691 15.3 13.7236 15.2073 13.8473 15.0836C13.8782 15.0527 13.9091 15.0527 13.94 15.0218L14.2182 14.7745C15.9182 13.2291 17 10.9727 17 8.5ZM13.7236 14.4036C13.6309 14.3418 13.5382 14.28 13.4455 14.2491L10.8182 12.9509C10.5709 12.8273 10.4473 12.6109 10.4473 12.3327V11.4055C10.5091 11.3436 10.5709 11.2509 10.6327 11.1582C10.9727 10.6945 11.2509 10.1382 11.4364 9.58182C11.8382 9.39636 12.0855 8.99455 12.0855 8.56182V7.48C12.0855 7.20182 11.9927 6.95455 11.8073 6.73818V5.25455C11.8382 5.1 11.8691 4.20364 11.22 3.43091C10.6636 2.81273 9.73636 2.47273 8.5 2.47273C7.26364 2.47273 6.33636 2.81273 5.74909 3.46182C5.1 4.20364 5.16182 5.1 5.16182 5.28545V6.73818C4.97636 6.95455 4.88364 7.20182 4.88364 7.48V8.56182C4.88364 8.90182 5.03818 9.21091 5.28545 9.42727C5.53273 10.4164 6.05818 11.1582 6.24364 11.4055V12.3018C6.24364 12.5491 6.12 12.7964 5.87273 12.92L3.46182 14.2182C3.36909 14.2491 3.30727 14.3109 3.21455 14.3727C1.63818 12.92 0.618182 10.8182 0.618182 8.5C0.618182 4.14182 4.14182 0.618182 8.5 0.618182C12.8582 0.618182 16.3818 4.14182 16.3818 8.5C16.3818 10.8491 15.3618 12.9509 13.7236 14.4036Z" fill="white"/>
</svg>
