<svg width="32" height="32" viewBox="0 0 32 32" fill="none" xmlns="http://www.w3.org/2000/svg">
<path d="M13.4566 22.7147C13.8621 23.6314 14.7797 24.2729 15.8448 24.2729C16.91 24.2729 17.8275 23.6314 18.233 22.7147H13.4566Z" fill="white"/>
<path d="M15.8455 8.65026C16.5483 8.65026 17.2232 8.77427 17.8495 9.00132V8.92418C17.8495 7.86318 16.9863 7 15.9254 7H15.7659C14.7049 7 13.8417 7.86318 13.8417 8.92418V9.00034C14.4677 8.77397 15.1424 8.65026 15.8455 8.65026Z" fill="white"/>
<path d="M22.1698 21.7009H9.52024C9.28093 21.7009 9.06172 21.5395 9.01195 21.3054C8.96268 21.0736 9.06831 20.8449 9.28262 20.7459C9.33348 20.7129 9.71627 20.4452 10.0995 19.6354C10.8034 18.1482 10.9511 16.0533 10.9511 14.5577C10.9511 11.8593 13.1464 9.664 15.8449 9.664C18.5369 9.664 20.7282 11.8487 20.7386 14.5383C20.7388 14.5448 20.739 14.5512 20.739 14.5577C20.739 16.0533 20.8867 18.1482 21.5906 19.6354C21.9738 20.4452 22.3565 20.7129 22.4074 20.7459C22.6217 20.8449 22.7274 21.0736 22.6781 21.3054C22.6283 21.5395 22.4092 21.7009 22.1698 21.7009ZM22.4131 20.7495H22.4135H22.4131Z" fill="white"/>
<circle cx="16" cy="16" r="15.75" stroke="white" stroke-width="0.5"/>
<circle cx="26.5" cy="4.5" r="3.5" fill="white"/>
</svg>
