<svg width="17" height="17" viewBox="0 0 17 17" fill="none" xmlns="http://www.w3.org/2000/svg">
<path d="M0 10.9902V14.7188C0 14.8975 0.0957578 15.0625 0.250982 15.1512L3.51953 17V12.9824L0 10.9902Z" fill="white"/>
<path d="M4.51562 12.9824V17L8.00195 15.0078V10.9902L4.51562 12.9824Z" fill="white"/>
<path d="M8.99805 10.9902V15.0078L12.4844 17V12.9824L8.99805 10.9902Z" fill="white"/>
<path d="M13.4805 12.9824V17L16.749 15.1512C16.9042 15.0625 17 14.8975 17 14.7188V10.9902L13.4805 12.9824Z" fill="white"/>
<path d="M12.9826 8.00195L9.13916 9.92362L12.9826 12.12L16.8592 9.92362L12.9826 8.00195Z" fill="white"/>
<path d="M8.72289 0.0525689C8.58264 -0.017523 8.41762 -0.017523 8.27737 0.0525689L4.65674 1.92167L8.50013 4.11806L12.3435 1.92164L8.72289 0.0525689Z" fill="white"/>
<path d="M4.51562 2.98828V7.13718L8.00195 8.88034V4.98047L4.51562 2.98828Z" fill="white"/>
<path d="M4.01771 8.00195L0.141113 9.92362L4.01771 12.12L7.86111 9.92362L4.01771 8.00195Z" fill="white"/>
<path d="M8.99805 4.98047V8.88034L12.4844 7.13718V2.98828L8.99805 4.98047Z" fill="white"/>
</svg>
