<svg width="25" height="22" viewBox="0 0 25 22" fill="none" xmlns="http://www.w3.org/2000/svg">
<path d="M9.36315 8.84153C10.3058 8.84153 11.07 8.07732 11.07 7.13463C11.07 6.19194 10.3058 5.42773 9.36315 5.42773C8.42045 5.42773 7.65625 6.19194 7.65625 7.13463C7.65625 8.07732 8.42045 8.84153 9.36315 8.84153Z" fill="#CBCBCB"/>
<path d="M23.375 13.4181C22.569 12.6595 21.5496 12.1616 20.4353 12.0194V3.34267C20.4353 2.4181 20.056 1.58836 19.4634 0.971983C18.847 0.355604 18.0172 0 17.0927 0H3.34267C2.4181 0 1.58836 0.37931 0.971983 0.971983C0.355603 1.58836 0 2.4181 0 3.34267V14.2716V15.2909V17.4957C0 18.4203 0.37931 19.25 0.971983 19.8664C1.58836 20.4828 2.4181 20.8384 3.34267 20.8384H16.6422C17.5194 21.5496 18.6099 22 19.819 22C21.2177 22 22.4741 21.431 23.375 20.5302C24.2759 19.6293 24.8448 18.3728 24.8448 16.9741C24.8448 15.5754 24.2759 14.319 23.375 13.4181ZM1.25647 3.34267C1.25647 2.77371 1.49353 2.25216 1.87284 1.89655C2.25215 1.51724 2.77371 1.28017 3.34267 1.28017H17.0927C17.6616 1.28017 18.1832 1.51724 18.5625 1.89655C18.9418 2.27586 19.1789 2.79741 19.1789 3.36638V10.7629L15.6703 7.25431C15.4332 7.01724 15.0302 6.99353 14.7694 7.25431L9.48276 12.5647L5.90302 8.96121C5.66595 8.72414 5.26293 8.70043 5.00215 8.96121L1.25647 12.7543V3.34267ZM3.31897 19.6293V19.5819C2.75 19.5819 2.22845 19.3448 1.84914 18.9655C1.49353 18.5862 1.25647 18.0647 1.25647 17.4957V15.2909V14.556L5.45259 10.3362L9.03233 13.9159C9.26939 14.153 9.67241 14.153 9.93319 13.9159L15.2198 8.6056L18.681 12.0905C18.6099 12.1142 18.5388 12.1379 18.4677 12.1616C18.3728 12.1853 18.278 12.2091 18.1595 12.2565C18.0647 12.2802 17.9698 12.3276 17.875 12.3513C17.8039 12.375 17.7565 12.3987 17.6853 12.4461C17.5905 12.4935 17.5194 12.5172 17.4483 12.5647C17.3297 12.6358 17.2112 12.7069 17.0927 12.778C17.0215 12.8254 16.9741 12.8491 16.903 12.8966C16.8556 12.9203 16.8319 12.944 16.7845 12.9677C16.5711 13.1099 16.3815 13.2759 16.2155 13.4655C15.3147 14.3664 14.7457 15.6228 14.7457 17.0216C14.7457 17.3772 14.7931 17.709 14.8642 18.0647C14.8879 18.1595 14.9116 18.2306 14.9353 18.3254C15.0065 18.5625 15.0776 18.7996 15.1724 19.0366V19.0603C15.2672 19.25 15.3621 19.4634 15.4806 19.6293H3.31897ZM22.4504 19.6293C21.7629 20.3168 20.8384 20.7198 19.7953 20.7198C18.7996 20.7198 17.875 20.3168 17.2112 19.6767C17.1164 19.5819 17.0215 19.4634 16.9267 19.3685C16.8556 19.2974 16.7845 19.2026 16.7134 19.1315C16.6185 19.0129 16.5474 18.8707 16.4763 18.7284C16.4289 18.6336 16.3815 18.5625 16.334 18.4677C16.2866 18.3491 16.2392 18.2069 16.2155 18.0647C16.1918 17.9698 16.1444 17.8513 16.1207 17.7565C16.0733 17.5194 16.0496 17.2586 16.0496 16.9978C16.0496 15.9547 16.4763 15.0302 17.1401 14.3427C17.8039 13.6552 18.7522 13.2522 19.7953 13.2522C20.8384 13.2522 21.7629 13.6789 22.4504 14.3427C23.1379 15.0302 23.5409 15.9547 23.5409 16.9978C23.5409 18.0172 23.1142 18.9418 22.4504 19.6293Z" fill="#CBCBCB"/>
<path d="M20.2438 19.4871C20.1964 19.5345 20.1253 19.5819 20.0304 19.6293C19.9593 19.653 19.8882 19.6768 19.8171 19.6768C19.7934 19.6768 19.7934 19.6768 19.7934 19.6768C19.7697 19.6768 19.7697 19.6768 19.7697 19.6768C19.6985 19.6768 19.6274 19.653 19.5563 19.6293C19.4852 19.6056 19.4141 19.5582 19.3429 19.4871L17.8731 18.0173C17.636 17.7802 17.636 17.3772 17.8731 17.1164C18.1102 16.8793 18.5132 16.8793 18.774 17.1164L19.1533 17.4957V14.888C19.1533 14.5324 19.4378 14.2479 19.7934 14.2479C20.149 14.2479 20.4335 14.5324 20.4335 14.888V17.4957L20.8128 17.1164C21.0498 16.8793 21.4529 16.8793 21.7136 17.1164C21.9507 17.3535 21.9507 17.7565 21.7136 18.0173L20.2438 19.4871Z" fill="#CBCBCB"/>
</svg>
