<svg width="9" height="16" viewBox="0 0 9 16" fill="none" xmlns="http://www.w3.org/2000/svg">
<path d="M0 3.91016C0.0716146 2.77865 0.497721 1.84408 1.27832 1.10645C2.06608 0.368815 3.06152 0 4.26465 0C5.47494 0 6.47754 0.361654 7.27246 1.08496C8.06738 1.80827 8.46484 2.71419 8.46484 3.80273C8.46484 4.5332 8.28581 5.17773 7.92773 5.73633C7.56966 6.29492 6.986 6.8571 6.17676 7.42285C5.44629 7.92415 4.94857 8.37891 4.68359 8.78711C4.42578 9.18815 4.29688 9.70378 4.29688 10.334V11.3008H3.46973V10.248C3.46257 9.54622 3.60938 8.9554 3.91016 8.47559C4.2181 7.99577 4.76595 7.47656 5.55371 6.91797C6.29134 6.39518 6.81413 5.89746 7.12207 5.4248C7.43717 4.94499 7.59473 4.41504 7.59473 3.83496C7.59473 2.93978 7.27604 2.20573 6.63867 1.63281C6.0013 1.05273 5.2028 0.762695 4.24316 0.762695C3.31217 0.762695 2.53158 1.05273 1.90137 1.63281C1.27116 2.20573 0.909505 2.96484 0.816406 3.91016H0ZM4.42578 15.5654C4.28971 15.7015 4.12142 15.7695 3.9209 15.7695C3.72038 15.7695 3.5485 15.7015 3.40527 15.5654C3.26921 15.4222 3.20117 15.2503 3.20117 15.0498C3.20117 14.8493 3.26921 14.681 3.40527 14.5449C3.5485 14.4089 3.72038 14.3408 3.9209 14.3408C4.12142 14.3408 4.28971 14.4089 4.42578 14.5449C4.56185 14.681 4.62988 14.8493 4.62988 15.0498C4.62988 15.2503 4.56185 15.4222 4.42578 15.5654Z" fill="white"/>
</svg>
