<svg width="17" height="17" viewBox="0 0 17 17" fill="none" xmlns="http://www.w3.org/2000/svg">
<path d="M17 9.90446V7.09554L14.6957 6.6373C14.5662 6.21898 14.4068 5.82051 14.1976 5.432L15.4826 3.50954L13.4904 1.51735L11.568 2.80234C11.1795 2.59313 10.781 2.43372 10.3627 2.3043L9.90446 0H7.09554L6.6373 2.30433C6.21898 2.43376 5.82051 2.59316 5.432 2.80238L3.50957 1.51738L1.51738 3.50957L2.80238 5.43203C2.59316 5.82051 2.43376 6.21898 2.30433 6.63734L0 7.09554V9.90446L2.30433 10.3627C2.43376 10.781 2.59316 11.1795 2.80238 11.568L1.51738 13.4904L3.50957 15.4826L5.43203 14.1976C5.82051 14.4068 6.21898 14.5662 6.63734 14.6957L7.09554 17H9.90446L10.3627 14.6957C10.781 14.5662 11.1795 14.4068 11.568 14.1976L13.4905 15.4826L15.4826 13.4904L14.1977 11.568C14.4069 11.1795 14.5663 10.781 14.6957 10.3627L17 9.90446ZM8.5 11.9863C6.57754 11.9863 5.01367 10.4225 5.01367 8.5C5.01367 6.57754 6.57754 5.01367 8.5 5.01367C10.4225 5.01367 11.9863 6.57754 11.9863 8.5C11.9863 10.4225 10.4225 11.9863 8.5 11.9863Z" fill="white"/>
</svg>
