<svg width="19" height="23" viewBox="0 0 19 23" fill="none" xmlns="http://www.w3.org/2000/svg">
<path d="M10.5 1V4H8.5V1C8.5 0.450195 8.95001 0 9.5 0C10.05 0 10.5 0.450195 10.5 1Z" fill="#426DE6"/>
<path d="M8.5 4L4.5 4C2.02502 4 0 6.0249 0 8.5L0 18.5C0 20.9751 2.02502 23 4.5 23L14.5 23C16.975 23 19 20.9751 19 18.5L19 8.5C19 6.0249 16.975 4 14.5 4L10.5 4L10.5 15.2729L13.3355 12.7524C13.749 12.3862 14.3805 12.4233 14.7475 12.8354C15.1145 13.2485 15.077 13.8804 14.6645 14.2476L10.1645 18.2476C9.97498 18.416 9.73749 18.5 9.5 18.5C9.26251 18.5 9.02502 18.416 8.83551 18.2476L4.33551 14.2476C3.92297 13.8804 3.8855 13.2485 4.2525 12.8354C4.61902 12.4233 5.25049 12.3857 5.66449 12.7524L8.5 15.2729L8.5 4Z" fill="#426DE6"/>
</svg>
