<svg width="22" height="25" viewBox="0 0 22 25" fill="none" xmlns="http://www.w3.org/2000/svg">
<path d="M4.47975 4.77148C8.03215 1.5581 13.3485 1.50897 16.95 4.44229L14.0953 4.55038C13.7268 4.56512 13.4418 4.86975 13.4566 5.23826C13.4713 5.59694 13.7661 5.87701 14.1199 5.87701C14.1297 5.87701 14.1346 5.87701 14.1445 5.87701L18.5272 5.71486C18.8859 5.70012 19.166 5.41023 19.166 5.05155V5.00242C19.166 4.99259 19.166 4.98768 19.166 4.97785V4.97293L19.0038 0.639292C18.9891 0.270785 18.6796 -0.0141933 18.316 0.000546957C17.9475 0.0152872 17.6625 0.31992 17.6772 0.688427L17.7804 3.40555C15.9968 1.94626 13.8005 1.10115 11.4519 0.983232C8.54315 0.835829 5.74741 1.83326 3.59042 3.7888C0.622705 6.47644 -0.635133 10.5644 0.308246 14.4558C0.381947 14.7605 0.652185 14.9619 0.951905 14.9619C1.00595 14.9619 1.05509 14.957 1.10913 14.9423C1.4629 14.8538 1.68401 14.4952 1.59556 14.1414C0.770108 10.7216 1.87072 7.12993 4.47975 4.77148Z" fill="#587DFF"/>
<path d="M21.6919 9.60636C21.6035 9.2526 21.2448 9.03149 20.891 9.11994C20.5372 9.20838 20.3161 9.56706 20.4046 9.92082C21.2349 13.3406 20.1294 16.9323 17.5204 19.2907C15.6877 20.9465 13.3882 21.7622 11.0985 21.7622C8.91207 21.7622 6.73051 21.0202 4.9715 19.556L7.8606 19.2956C8.22419 19.2612 8.49443 18.9419 8.46003 18.5734C8.42564 18.2049 8.10627 17.9395 7.73776 17.9739L3.36972 18.367C3.00613 18.4014 2.73589 18.7208 2.77029 19.0893L3.16336 23.4573C3.19284 23.8012 3.48273 24.0617 3.82176 24.0617C3.84141 24.0617 3.86107 24.0617 3.88072 24.0567C4.24431 24.0224 4.51455 23.703 4.48016 23.3345L4.24431 20.6763C6.02789 22.1209 8.21436 22.9611 10.5482 23.079C10.735 23.0888 10.9217 23.0937 11.1035 23.0937C13.8108 23.0937 16.3854 22.1012 18.4097 20.2734C21.3774 17.5858 22.6353 13.5027 21.6919 9.60636Z" fill="#587DFF"/>
</svg>
