<svg width="19" height="14" viewBox="0 0 19 14" fill="none" xmlns="http://www.w3.org/2000/svg">
<path d="M18.6085 2.14552C18.3896 1.35009 17.7478 0.723058 16.934 0.508873C15.4472 0.111328 9.49979 0.111328 9.49979 0.111328C9.49979 0.111328 3.55265 0.111328 2.06584 0.493801C1.26764 0.707759 0.610218 1.3502 0.391273 2.14552C0 3.59835 0 6.61133 0 6.61133C0 6.61133 0 9.63949 0.391273 11.0771C0.61045 11.8725 1.25198 12.4995 2.06595 12.7137C3.56831 13.1113 9.50002 13.1113 9.50002 13.1113C9.50002 13.1113 15.4472 13.1113 16.934 12.7289C17.7479 12.5148 18.3896 11.8878 18.6088 11.0924C18.9999 9.63949 18.9999 6.62663 18.9999 6.62663C18.9999 6.62663 19.0156 3.59835 18.6085 2.14552ZM7.60628 9.39482V3.82783L12.5518 6.61133L7.60628 9.39482Z" fill="white"/>
</svg>
